<?xml version="1.0" standalone="no"?>
<!DOCTYPE svg PUBLIC "-//W3C//DTD SVG 20010904//EN"
 "http://www.w3.org/TR/2001/REC-SVG-20010904/DTD/svg10.dtd">
<svg version="1.0" xmlns="http://www.w3.org/2000/svg"
 width="2160.000000pt" height="1000.000000pt" viewBox="0 0 2160.000000 1000.000000"
 preserveAspectRatio="xMidYMid meet">

<g transform="translate(0.000000,1000.000000) scale(0.100000,-0.100000)"
fill="#000000" stroke="none">
<path d="M4105 9286 c-117 -29 -214 -110 -268 -224 l-32 -67 -3 -500 c-2 -459
-1 -498 13 -477 18 24 63 30 83 10 17 -17 17 -369 0 -386 -20 -20 -65 -14 -82
10 -15 20 -16 -339 -16 -3815 l0 -3837 7000 0 7000 0 0 4473 c0 4800 3 4514
-49 4616 -29 55 -106 133 -159 160 -108 55 404 51 -6797 50 -5244 -1 -6651 -3
-6690 -13z m12966 -331 c180 -62 237 -292 108 -438 -52 -60 -113 -89 -187 -90
-79 0 -101 8 -94 36 5 20 4 20 -11 8 -15 -12 -21 -9 -49 18 -17 17 -29 34 -25
37 4 4 -1 13 -11 21 -16 14 -16 14 0 9 11 -3 26 3 38 16 18 20 21 20 38 5 28
-25 31 -22 30 33 0 49 0 49 -21 35 -30 -21 -53 -19 -71 6 -19 27 -40 15 -33
-20 3 -14 1 -35 -3 -46 -5 -11 -9 -16 -9 -11 -1 5 -7 3 -15 -3 -23 -19 -50 76
-44 153 7 76 35 133 89 180 74 63 177 82 270 51z m-12441 -215 c0 -93 -1 -100
-20 -100 -19 0 -20 7 -20 100 0 93 1 100 20 100 19 0 20 -7 20 -100z m70 -1
c0 -90 -2 -100 -17 -97 -15 3 -18 17 -21 87 -3 94 0 111 23 111 12 0 15 -17
15 -101z m-510 21 l16 -64 18 67 c16 59 21 68 40 65 17 -2 24 -16 37 -68 l17
-65 10 40 c6 22 14 52 18 68 4 17 13 27 25 27 22 0 23 -5 10 -46 -5 -16 -17
-55 -26 -87 -14 -51 -19 -58 -38 -55 -18 2 -25 15 -38 63 l-17 60 -17 -62
c-15 -53 -22 -63 -41 -63 -19 0 -25 10 -43 78 -26 96 -26 115 -4 110 12 -2 22
-23 33 -68z m750 54 c0 -9 9 -18 20 -21 11 -3 20 -11 20 -18 0 -7 -9 -15 -20
-18 -15 -4 -20 -14 -20 -36 0 -20 7 -34 20 -41 27 -15 26 -40 -3 -40 -33 0
-47 19 -47 62 0 21 -6 48 -12 59 -10 17 -10 23 0 26 6 3 12 13 12 24 0 10 7
19 15 19 8 0 15 -7 15 -16z m9508 -10 c42 -29 18 -104 -35 -104 -27 0 -63 33
-63 58 0 24 36 62 58 62 10 0 28 -7 40 -16z m880 0 c16 -11 22 -25 22 -54 0
-29 -6 -43 -22 -54 -51 -36 -108 -7 -108 54 0 42 26 70 65 70 11 0 31 -7 43
-16z m-10768 -90 c0 -67 -2 -74 -20 -74 -11 0 -20 5 -20 12 0 9 -3 9 -12 0
-35 -35 -99 4 -101 60 -2 58 23 77 94 76 l59 -1 0 -73z m293 58 c9 -10 18 -29
19 -43 3 -22 -1 -24 -51 -29 -45 -4 -52 -7 -39 -17 11 -10 21 -10 46 -1 17 7
35 9 39 4 12 -12 -36 -46 -65 -46 -62 0 -96 86 -52 130 25 25 81 26 103 2z
m-626 -873 c34 -13 43 -26 43 -63 0 -44 -25 -66 -77 -66 l-43 0 0 63 c0 35 3
67 7 70 9 10 38 8 70 -4z m333 -9 c0 -16 5 -19 29 -14 23 5 32 2 40 -14 17
-32 14 -92 -4 -92 -11 0 -15 11 -15 41 0 36 -2 40 -22 37 -19 -2 -24 -10 -26
-40 -2 -25 -8 -38 -18 -38 -11 0 -14 16 -14 70 0 56 3 70 15 70 8 0 15 -9 15
-20z m130 0 c0 -17 4 -19 25 -14 48 12 80 -39 55 -87 -8 -15 -22 -19 -60 -19
l-50 0 0 70 c0 56 3 70 15 70 8 0 15 -9 15 -20z m550 -50 l0 -70 -43 0 c-50 0
-67 13 -67 51 0 36 27 62 57 56 17 -3 23 0 23 14 0 11 7 19 15 19 12 0 15 -14
15 -70z m-840 -15 l0 -53 -36 -4 c-48 -6 -74 14 -74 57 0 40 19 54 73 53 l37
0 0 -53z m100 40 c17 -21 4 -32 -20 -17 -10 6 -22 8 -25 3 -3 -5 9 -14 26 -20
24 -8 30 -15 27 -33 -4 -30 -58 -38 -79 -12 -12 15 -11 16 19 10 38 -9 45 9 7
18 -31 8 -42 31 -25 51 16 19 54 19 70 0z m381 5 c23 -13 26 -72 4 -90 -22
-18 -66 -15 -82 6 -40 54 17 116 78 84z m149 -45 l0 -53 -37 -4 c-68 -8 -106
60 -56 99 8 6 33 11 54 11 l39 0 0 -53z m90 39 c0 -6 -7 -14 -15 -18 -9 -3
-15 -19 -15 -41 0 -24 -4 -35 -15 -35 -11 0 -15 13 -15 53 0 53 0 54 30 54 17
0 30 -6 30 -13z m3893 -615 c13 -153 13 -157 -13 -183 -42 -46 -112 -42 -144
6 -14 21 -26 103 -30 193 -2 45 26 38 40 -10 7 -22 13 -35 13 -29 1 7 21 15
46 18 l45 7 0 43 c0 23 3 46 7 50 18 18 29 -9 36 -95z m-4816 34 l26 -57 26
54 c14 30 31 53 36 52 6 -1 11 -31 13 -67 2 -54 -1 -65 -14 -65 -13 0 -15 8
-12 41 3 35 2 38 -10 22 -7 -10 -15 -28 -19 -40 -9 -37 -29 -27 -51 25 l-20
47 -1 -47 c-1 -27 -5 -48 -11 -48 -11 0 -14 123 -3 133 11 12 13 9 40 -50z
m703 -13 c0 -40 -4 -70 -10 -70 -6 0 -10 30 -10 70 0 40 4 70 10 70 6 0 10
-30 10 -70z m-553 -2 l17 -42 20 44 c30 70 31 28 0 -50 -27 -70 -51 -95 -39
-42 4 18 -1 45 -15 76 -23 55 -23 56 -10 56 6 0 18 -19 27 -42z m243 -27 c0
-90 -34 -124 -86 -87 -24 18 -13 31 14 15 24 -15 52 -5 52 19 0 15 -6 18 -30
14 -37 -5 -60 12 -60 46 0 39 26 61 71 59 l39 -1 0 -65z m113 55 c21 -16 23
-69 2 -86 -22 -18 -66 -15 -82 6 -19 25 -16 51 7 74 23 23 47 25 73 6z m147
-41 l0 -52 -41 -1 c-49 -2 -69 11 -69 46 0 39 26 61 71 59 l39 -1 0 -51z m134
49 c9 -3 16 -12 16 -20 0 -12 -4 -12 -20 -2 -15 10 -22 10 -32 0 -9 -9 -5 -14
19 -23 34 -11 46 -29 33 -49 -10 -15 -57 -17 -73 -1 -17 17 -1 24 22 9 15 -9
23 -10 32 -1 9 9 3 15 -25 27 -37 15 -45 33 -24 54 13 13 28 15 52 6z m2056
-134 l0 -120 -25 0 -25 0 0 120 0 120 25 0 25 0 0 -120z m90 0 l0 -120 -25 0
-25 0 0 113 c0 63 3 117 7 120 3 4 15 7 25 7 16 0 18 -10 18 -120z m780 86 l0
-34 43 5 c63 7 81 -17 81 -110 1 -68 0 -72 -21 -73 -21 -1 -23 3 -23 53 0 63
-13 93 -39 93 -29 0 -40 -21 -43 -85 -3 -52 -6 -60 -23 -60 -19 0 -20 8 -23
123 l-3 122 26 0 c22 0 25 -4 25 -34z m-1308 -23 l3 -48 48 -3 47 -3 0 51 c0
48 2 51 23 48 21 -3 22 -7 25 -115 l3 -113 -26 0 c-23 0 -25 4 -25 45 l0 45
-50 0 -50 0 0 -45 c0 -38 -3 -45 -20 -45 -19 0 -20 7 -20 115 0 107 1 115 19
115 17 0 20 -8 23 -47z m998 -48 c0 -90 -2 -98 -26 -122 -20 -20 -31 -24 -57
-19 -36 7 -54 23 -59 51 -4 25 31 34 44 11 5 -9 18 -16 28 -16 18 0 20 7 20
95 0 95 0 95 25 95 25 0 25 0 25 -95z m-665 20 c16 -15 25 -36 25 -55 l0 -30
-65 0 c-66 0 -81 -10 -44 -30 16 -9 26 -8 44 4 49 32 76 8 34 -30 -13 -12 -35
-19 -61 -19 -32 0 -45 6 -65 30 -21 24 -24 36 -20 74 6 56 34 81 89 81 28 0
46 -7 63 -25z m390 0 c36 -35 35 -102 -1 -136 -35 -33 -95 -33 -128 1 -61 62
-22 160 64 160 30 0 47 -6 65 -25z m476 -4 c66 -67 3 -177 -90 -156 -58 13
-87 79 -60 139 24 53 104 62 150 17z m430 8 c15 -15 19 -33 19 -95 0 -72 -1
-75 -22 -72 -21 3 -23 10 -28 73 l-5 70 -30 0 -30 0 -5 -70 c-4 -62 -7 -70
-25 -70 -18 0 -20 8 -23 91 l-3 91 66 1 c53 0 70 -3 86 -19z m109 9 c0 -9 3
-9 12 0 20 20 75 14 98 -10 18 -19 20 -33 18 -93 -3 -62 -5 -70 -23 -70 -17 0
-20 8 -23 60 -3 64 -14 85 -43 85 -25 0 -33 -17 -39 -85 -4 -52 -8 -60 -25
-60 -18 0 -20 8 -23 93 l-3 92 26 0 c14 0 25 -5 25 -12z m224 -45 c10 -29 21
-53 25 -53 3 0 15 24 26 53 15 38 26 53 43 55 12 2 22 -2 22 -8 0 -6 -24 -67
-52 -135 -45 -107 -56 -125 -75 -125 -27 0 -28 8 -6 54 15 32 15 39 1 73 -8
21 -25 62 -37 91 l-21 53 27 -3 c24 -3 31 -11 47 -55z m-3524 -403 c0 -5 -4
-10 -10 -10 -5 0 -10 5 -10 10 0 6 5 10 10 10 6 0 10 -4 10 -10z m-800 -10 c0
-5 -9 -10 -20 -10 -18 0 -20 -7 -20 -60 0 -33 -4 -60 -10 -60 -6 0 -10 27 -10
60 0 47 -3 60 -15 60 -8 0 -15 5 -15 10 0 6 20 10 45 10 25 0 45 -4 45 -10z
m730 -5 c0 -8 7 -15 15 -15 8 0 15 -4 15 -10 0 -5 -7 -10 -15 -10 -10 0 -15
-11 -15 -35 0 -24 5 -35 15 -35 8 0 15 -5 15 -11 0 -6 -10 -9 -22 -7 -19 2
-24 11 -29 53 -3 28 -4 58 -1 68 5 21 22 23 22 2z m1677 -77 c-2 -18 -4 -4 -4
32 0 36 2 50 4 33 2 -18 2 -48 0 -65z m100 66 c-3 -3 -12 -4 -19 -1 -8 3 -5 6
6 6 11 1 17 -2 13 -5z m1390 0 c-3 -3 -12 -4 -19 -1 -8 3 -5 6 6 6 11 1 17 -2
13 -5z m163 2 c0 -3 -4 -8 -10 -11 -5 -3 -10 -1 -10 4 0 6 5 11 10 11 6 0 10
-2 10 -4z m397 -2 c-3 -3 -12 -4 -19 -1 -8 3 -5 6 6 6 11 1 17 -2 13 -5z
m-4387 -14 c0 -4 -7 -10 -15 -14 -10 -3 -15 -19 -15 -46 0 -22 -4 -40 -10 -40
-5 0 -10 24 -10 54 0 50 1 54 25 54 14 0 25 -4 25 -8z m130 -44 l0 -52 -42 -1
c-52 -2 -68 10 -68 51 0 43 16 56 67 54 l43 -1 0 -51z m124 13 c10 -40 2 -74
-14 -64 -5 3 -10 24 -10 46 0 35 -3 39 -25 39 -23 0 -25 -4 -25 -45 0 -25 -4
-45 -10 -45 -5 0 -10 24 -10 54 l0 54 43 -2 c40 -1 42 -3 51 -37z m104 24 c2
-9 -5 -11 -27 -7 -41 8 -41 -11 0 -25 24 -8 30 -15 27 -33 -2 -19 -9 -23 -37
-23 -19 0 -36 6 -38 12 -3 9 4 11 26 7 40 -8 41 11 1 25 -29 10 -40 37 -23 55
11 11 66 2 71 -11z m132 -38 l0 -52 -41 -1 c-52 -2 -69 11 -69 52 0 43 16 56
67 54 l43 -1 0 -52z m104 49 c9 -3 16 -13 16 -22 0 -12 -3 -13 -12 -4 -17 17
-55 15 -62 -4 -16 -42 30 -74 62 -42 7 7 12 8 12 2 0 -33 -52 -44 -82 -17 -47
42 5 111 66 87z m136 -49 c0 -30 -4 -55 -10 -55 -5 0 -10 25 -10 55 0 30 5 55
10 55 6 0 10 -25 10 -55z m120 36 c33 -63 -30 -121 -82 -74 -22 20 -23 51 -1
75 22 24 69 24 83 -1z m117 8 c15 -13 18 -99 3 -99 -5 0 -10 20 -10 45 0 41
-2 45 -24 45 -26 0 -36 -16 -36 -61 0 -16 -4 -29 -10 -29 -5 0 -10 24 -10 53
l0 54 37 1 c20 1 42 -3 50 -9z m113 -4 c11 -13 8 -14 -19 -9 -34 7 -44 -10
-12 -21 32 -10 46 -32 31 -51 -15 -17 -61 -15 -68 3 -2 9 5 11 27 7 40 -8 41
11 1 25 -28 9 -40 37 -23 54 12 12 50 7 63 -8z m1390 -20 c0 -5 -5 -3 -10 5
-5 8 -10 20 -10 25 0 6 5 3 10 -5 5 -8 10 -19 10 -25z m51 21 c-5 -6 -11 -27
-14 -46 -3 -31 -4 -30 -5 11 -2 34 2 46 13 46 9 0 11 -4 6 -11z m236 -53 c-2
-16 -4 -5 -4 22 0 28 2 40 4 28 2 -13 2 -35 0 -50z m50 35 c-3 -7 -5 -2 -5 12
0 14 2 19 5 13 2 -7 2 -19 0 -25z m352 -12 c-1 -20 -2 -20 -6 -1 -3 11 -10 27
-17 35 -10 13 -9 13 7 1 9 -7 16 -23 16 -35z m53 -33 c7 -9 7 -13 0 -13 -14 0
-22 26 -20 63 l1 32 4 -35 c3 -19 9 -41 15 -47z m68 31 c0 -25 -4 -43 -8 -40
-7 4 -4 86 4 86 2 0 4 -21 4 -46z m47 24 c-3 -8 -6 -5 -6 6 -1 11 2 17 5 13 3
-3 4 -12 1 -19z m134 8 c-5 -6 -11 -27 -14 -46 -3 -31 -4 -30 -5 11 -2 34 2
46 13 46 9 0 11 -4 6 -11z m72 2 c-14 -17 -13 -49 1 -68 10 -13 9 -13 -6 -1
-25 19 -21 81 4 81 7 0 7 -4 1 -12z m128 -2 c-5 -6 -9 -35 -10 -65 0 -29 -2
-56 -5 -59 -3 -3 -6 26 -6 65 0 55 3 70 15 70 9 0 11 -4 6 -11z m197 -11 c-3
-3 -9 2 -12 12 -6 14 -5 15 5 6 7 -7 10 -15 7 -18z m49 -7 c-3 -7 -5 -2 -5 12
0 14 2 19 5 13 2 -7 2 -19 0 -25z m205 20 c-16 -16 -15 -50 1 -68 10 -12 9
-12 -5 -1 -26 19 -21 81 5 81 7 0 7 -4 -1 -12z m116 -13 c-3 -3 -9 2 -12 12
-6 14 -5 15 5 6 7 -7 10 -15 7 -18z m115 10 c-3 -9 -8 -14 -10 -11 -3 3 -2 9
2 15 9 16 15 13 8 -4z m118 -33 c-4 -54 -11 -53 -11 3 0 27 3 45 7 41 4 -4 6
-24 4 -44z m419 38 c0 -5 -2 -10 -4 -10 -3 0 -8 5 -11 10 -3 6 -1 10 4 10 6 0
11 -4 11 -10z m-2297 -42 c-2 -5 1 -17 9 -26 12 -15 11 -16 -4 -3 -10 7 -18
25 -18 40 0 20 3 22 9 11 6 -8 7 -18 4 -22z m500 -28 c11 -13 10 -13 -5 -1
-10 7 -17 25 -17 40 l2 26 4 -25 c3 -14 10 -32 16 -40z m1610 28 c-2 -5 1 -17
9 -26 12 -15 11 -16 -4 -3 -10 7 -18 25 -18 40 0 20 3 22 9 11 6 -8 7 -18 4
-22z m-956 0 c-3 -8 -6 -5 -6 6 -1 11 2 17 5 13 3 -3 4 -12 1 -19z m450 0 c-3
-8 -6 -5 -6 6 -1 11 2 17 5 13 3 -3 4 -12 1 -19z m-1323 -28 c-6 -6 -10 -3
-10 10 0 13 4 16 10 10 7 -7 7 -13 0 -20z m1711 1 c-8 -14 -25 -14 -25 0 0 5
5 7 10 4 6 -3 10 -1 10 6 0 7 3 10 6 6 3 -3 3 -10 -1 -16z m266 -4 c-10 -9
-11 -8 -5 6 3 10 9 15 12 12 3 -3 0 -11 -7 -18z m72 2 c-8 -8 -13 -7 -18 2 -5
8 -4 10 3 5 7 -4 12 -2 12 5 0 7 3 9 7 6 4 -4 2 -12 -4 -18z m-643 -1 c0 -4
-4 -8 -9 -8 -6 0 -12 4 -15 8 -3 5 1 9 9 9 8 0 15 -4 15 -9z m-1277 -18 c-3
-11 -7 -20 -9 -20 -2 0 -4 9 -4 20 0 11 4 20 9 20 5 0 7 -9 4 -20z m-3072
-449 c20 -16 22 -23 13 -38 -8 -12 -8 -23 -1 -34 6 -9 7 -23 4 -32 -6 -17 -69
-33 -86 -22 -12 7 -15 127 -4 138 13 13 51 7 74 -12z m269 -54 l0 -73 -41 1
c-65 1 -91 53 -48 96 14 14 28 19 45 15 19 -5 24 -3 24 14 0 11 5 20 10 20 6
0 10 -31 10 -73z m320 43 c16 -16 17 -20 5 -20 -21 0 -20 -66 1 -78 12 -7 13
-11 4 -17 -27 -17 -46 36 -41 118 1 22 6 22 31 -3z m-197 -12 c14 1 17 -8 17
-56 0 -66 -19 -102 -54 -102 -13 0 -31 9 -41 20 -21 23 -14 26 15 8 23 -15 53
-2 58 26 3 14 0 15 -22 5 -22 -10 -29 -9 -46 6 -27 25 -26 70 2 90 13 8 30 12
38 9 8 -4 23 -6 33 -6z m128 -9 c29 -29 19 -43 -29 -47 -23 -2 -42 -7 -42 -12
0 -14 41 -23 53 -11 14 14 27 14 27 1 0 -6 -11 -15 -25 -22 -57 -26 -105 60
-53 96 30 21 44 20 69 -5z m-461 -23 c0 -37 21 -62 45 -52 10 3 15 19 15 46 0
22 5 40 10 40 6 0 10 -24 10 -52 l0 -53 -33 0 c-47 0 -67 20 -67 66 0 22 5 39
10 39 6 0 10 -15 10 -34z m3210 -639 c0 -20 4 -23 30 -19 40 6 60 -13 60 -54
0 -40 -23 -56 -72 -50 l-33 3 -3 72 c-2 44 1 71 8 71 5 0 10 -10 10 -23z m270
-52 c0 -43 -4 -75 -10 -75 -6 0 -10 32 -10 75 0 43 4 75 10 75 6 0 10 -32 10
-75z m-577 15 c11 -27 24 -50 28 -50 3 0 16 23 27 50 12 28 26 50 31 50 7 0
11 -28 11 -70 0 -40 -4 -70 -10 -70 -5 0 -10 21 -10 48 l-1 47 -21 -47 c-11
-27 -24 -48 -28 -48 -4 0 -17 21 -28 48 l-20 47 -1 -47 c-1 -27 -5 -48 -11
-48 -6 0 -10 30 -10 70 0 84 13 90 43 20z m148 -7 c5 -16 12 -35 15 -43 4 -10
11 0 21 28 8 23 19 42 24 42 5 0 9 -2 9 -5 0 -10 -53 -140 -61 -149 -15 -16
-20 0 -9 25 9 20 7 34 -9 73 -24 55 -24 56 -11 56 6 0 15 -12 21 -27z m379
-28 l0 -51 -37 -1 c-61 -2 -89 38 -63 88 9 15 20 19 55 17 l45 -1 0 -52z m180
0 l0 -51 -37 -1 c-61 -2 -89 38 -63 88 9 15 20 19 55 17 l45 -1 0 -52z m117
44 c15 -13 18 -99 3 -99 -5 0 -10 17 -10 39 0 22 -6 44 -15 51 -23 19 -45 -5
-45 -51 0 -22 -4 -39 -10 -39 -5 0 -10 24 -10 53 l0 54 37 1 c20 1 42 -3 50
-9z m128 0 c11 -17 -2 -21 -24 -7 -29 18 -56 -9 -47 -46 7 -28 33 -35 54 -14
17 17 28 2 12 -17 -26 -31 -90 -5 -90 37 0 38 19 58 55 58 18 0 37 -5 40 -11z
m125 -8 c18 -34 11 -41 -36 -41 -32 0 -44 -4 -42 -12 6 -18 49 -22 59 -7 4 8
11 10 15 6 11 -11 -16 -37 -39 -37 -27 0 -57 28 -57 52 0 38 19 58 55 58 24 0
38 -6 45 -19z m2780 -106 c0 -37 -4 -65 -10 -65 -6 0 -10 28 -10 65 0 37 4 65
10 65 6 0 10 -28 10 -65z m3698 58 c-22 -3 -28 -10 -28 -29 0 -19 5 -24 28
-25 l27 -2 -27 -4 c-22 -3 -28 -10 -28 -28 0 -18 6 -25 28 -28 22 -3 20 -4
-10 -6 l-38 -1 0 65 0 65 38 -1 c30 -2 32 -3 10 -6z m-3584 -29 c17 -17 22
-94 7 -94 -6 0 -11 19 -13 42 -2 33 -8 44 -22 46 -24 5 -36 -14 -36 -55 0 -18
-4 -33 -10 -33 -5 0 -10 22 -10 49 0 43 3 50 23 54 40 8 45 7 61 -9z m122 2
c25 -18 12 -31 -14 -15 -17 10 -23 10 -36 0 -36 -30 -3 -87 36 -62 11 7 23 9
26 6 8 -8 -27 -35 -45 -35 -20 0 -53 37 -53 60 0 23 33 60 53 60 7 0 22 -6 33
-14z m122 -2 c42 -29 17 -104 -35 -104 -20 0 -53 38 -53 60 0 22 33 60 53 60
7 0 23 -7 35 -16z m137 5 c6 0 19 2 31 6 31 10 54 -19 54 -66 0 -21 -4 -39
-10 -39 -5 0 -10 13 -10 29 0 42 -9 61 -30 61 -21 0 -30 -19 -30 -61 0 -16 -4
-29 -10 -29 -5 0 -10 18 -10 40 0 27 -5 43 -15 46 -24 10 -45 -15 -45 -52 0
-19 -4 -34 -10 -34 -5 0 -10 22 -10 49 0 43 3 50 23 54 12 3 31 3 42 0 11 -2
25 -4 30 -4z m187 -1 c9 -7 18 -22 20 -33 3 -17 -4 -21 -41 -25 -40 -5 -43 -6
-27 -19 14 -12 22 -12 37 -3 23 15 29 15 29 2 0 -6 -11 -15 -25 -22 -57 -26
-105 60 -53 96 27 19 39 20 60 4z m3246 -4 c49 -34 6 -123 -47 -94 -19 10 -21
8 -21 -25 0 -22 -4 -34 -10 -30 -5 3 -10 40 -10 82 0 59 3 74 13 70 8 -3 20
-1 28 4 19 12 21 11 47 -7z m124 4 c9 -7 18 -22 20 -33 3 -17 -3 -20 -39 -23
-24 -2 -43 -7 -43 -12 0 -14 41 -23 53 -11 14 14 27 14 27 1 0 -6 -11 -15 -25
-22 -57 -26 -105 60 -53 96 27 19 39 20 60 4z m128 -8 c21 -21 29 -90 10 -90
-5 0 -10 15 -10 34 0 37 -21 62 -45 52 -10 -3 -15 -19 -15 -46 0 -22 -4 -40
-10 -40 -5 0 -10 22 -10 49 0 51 -1 50 53 60 4 0 16 -8 27 -19z m106 6 c10 -8
16 -18 11 -22 -4 -4 -13 -2 -19 4 -7 7 -18 12 -25 12 -23 0 -14 -19 17 -35 34
-18 40 -50 10 -60 -21 -7 -60 10 -60 25 0 13 17 13 25 0 9 -14 35 -12 35 3 0
7 -13 18 -30 24 -33 13 -39 37 -12 52 23 14 25 13 48 -3z m125 -7 c29 -29 19
-43 -31 -49 -39 -5 -42 -6 -26 -19 14 -12 22 -12 37 -3 23 15 29 15 29 2 0 -6
-11 -15 -25 -22 -57 -26 -105 60 -53 96 30 21 44 20 69 -5z m93 15 c9 -3 16
-12 16 -20 0 -12 -4 -12 -20 -2 -15 10 -22 10 -31 1 -9 -9 -3 -15 25 -27 40
-17 47 -40 16 -56 -24 -13 -56 -5 -64 15 -7 18 -2 19 24 3 15 -10 22 -10 32 0
9 9 5 14 -19 23 -38 13 -48 33 -27 54 17 17 25 18 48 9z m-733 -20 c11 -14 13
-14 21 0 5 9 14 16 20 16 6 0 4 -10 -5 -24 -14 -21 -14 -26 0 -45 19 -28 7
-43 -13 -16 -14 19 -16 19 -25 3 -6 -10 -15 -18 -21 -18 -6 0 -3 11 6 25 15
23 15 27 0 50 -18 27 -5 35 17 9z m-7257 -285 c31 -15 56 -60 56 -103 0 -51
-32 -109 -93 -167 l-51 -49 77 0 77 0 0 -35 0 -35 -135 0 -135 0 0 33 c0 27 9
40 61 82 107 88 146 167 103 209 -29 29 -77 13 -88 -29 -5 -21 -12 -25 -42
-25 -36 0 -37 0 -31 36 14 85 110 124 201 83z m-274 -189 l0 -200 -40 0 -40 0
-2 163 -3 162 -27 3 c-23 3 -28 8 -28 31 0 15 3 31 7 34 3 4 35 7 70 7 l63 0
0 -200z m510 0 l0 -200 -40 0 -40 0 0 165 0 165 -25 0 c-22 0 -25 4 -25 35 l0
35 65 0 65 0 0 -200z m439 185 c39 -20 63 -77 69 -160 5 -85 -10 -146 -47
-187 -23 -26 -37 -32 -83 -36 -38 -3 -64 1 -86 12 -92 48 -109 271 -27 353 30
30 39 33 89 33 32 0 70 -7 85 -15z m360 -1 c40 -29 61 -90 61 -183 0 -141 -43
-201 -145 -201 -98 0 -143 60 -144 195 -1 89 13 141 49 177 25 25 36 28 92 28
43 0 71 -5 87 -16z m440 -25 c38 -23 70 -58 71 -76 0 -23 -51 -14 -71 11 -42
53 -132 57 -189 10 -47 -40 -40 -54 30 -54 53 0 60 -2 60 -20 0 -18 -7 -20
-70 -20 -68 0 -70 -1 -70 -25 0 -24 2 -25 70 -25 63 0 70 -2 70 -20 0 -18 -7
-20 -60 -20 -33 0 -60 -4 -60 -8 0 -5 14 -21 31 -38 27 -25 38 -29 90 -29 56
0 63 3 90 33 28 31 79 45 79 22 0 -39 -71 -92 -141 -105 -71 -13 -176 40 -199
101 -6 15 -19 24 -37 26 -38 4 -45 38 -9 38 21 0 26 5 26 24 0 18 -6 25 -22
28 -32 4 -29 32 4 36 18 2 30 12 38 32 25 61 91 99 175 100 44 0 69 -6 94 -21z
m5888 -70 c79 -29 128 -128 102 -206 -17 -54 -36 -80 -76 -104 -69 -43 -177
-22 -227 44 -65 85 -39 199 59 258 33 21 99 25 142 8z m-3655 -164 c15 -20
-15 -35 -72 -35 -57 0 -87 15 -72 35 4 6 22 23 41 38 l34 28 31 -28 c17 -15
34 -32 38 -38z m-3311 -67 c-39 -100 -61 -138 -82 -138 -20 0 -21 3 -15 43 4
23 11 59 17 80 9 35 12 37 49 37 37 0 39 -2 31 -22z m-461 -1718 c0 -15 7 -20
28 -20 15 0 33 -5 40 -12 14 -14 16 -98 2 -98 -5 0 -10 18 -10 40 0 27 -5 42
-17 48 -31 16 -43 3 -43 -44 0 -24 -4 -44 -10 -44 -6 0 -10 32 -10 75 0 43 4
75 10 75 6 0 10 -9 10 -20z m130 -55 c0 -35 -4 -67 -10 -70 -6 -4 -10 22 -10
70 0 48 4 74 10 70 6 -3 10 -35 10 -70z m340 0 c0 -43 -4 -75 -10 -75 -6 0
-10 32 -10 75 0 43 4 75 10 75 6 0 10 -32 10 -75z m5250 1 l0 -74 -45 2 c-48
1 -65 15 -65 52 0 36 23 57 58 52 28 -4 32 -2 32 19 0 13 5 23 10 23 6 0 10
-31 10 -74z m50 64 c0 -5 -4 -10 -10 -10 -5 0 -10 5 -10 10 0 6 5 10 10 10 6
0 10 -4 10 -10z m369 -6 c-10 -13 -10 -17 2 -26 11 -7 11 -11 2 -15 -8 -3 -13
-23 -13 -49 0 -62 -17 -55 -22 9 -5 62 5 97 28 97 14 0 14 -2 3 -16z m-6607
-48 l24 -55 27 55 c15 30 31 54 37 54 6 0 10 -29 10 -70 0 -40 -4 -70 -10 -70
-5 0 -10 21 -10 48 l-1 47 -22 -42 c-12 -23 -26 -42 -32 -41 -5 1 -18 18 -27
37 l-16 36 -1 -37 c-1 -20 -5 -40 -11 -43 -6 -4 -10 20 -10 64 0 39 4 71 9 71
4 0 19 -24 33 -54z m398 39 c0 -8 7 -15 15 -15 8 0 15 -4 15 -10 0 -5 -7 -10
-15 -10 -10 0 -15 -11 -15 -35 0 -24 5 -35 15 -35 8 0 15 -4 15 -10 0 -21 -40
-10 -45 13 -5 26 -9 74 -7 100 2 21 22 23 22 2z m5270 0 c10 -12 10 -15 -3
-15 -9 0 -18 4 -22 10 -8 13 -35 1 -35 -16 0 -8 16 -20 36 -29 27 -11 35 -19
32 -36 -4 -29 -29 -43 -61 -35 -25 6 -39 36 -17 36 6 0 10 -5 10 -11 0 -14 42
-7 47 8 3 7 -12 19 -31 27 -27 11 -36 21 -36 39 0 13 3 27 7 30 12 13 60 7 73
-8z m-5456 -31 c50 -49 -24 -124 -76 -77 -20 18 -23 45 -8 74 13 23 62 26 84
3z m123 5 c15 -13 18 -99 3 -99 -5 0 -10 20 -10 44 0 47 -12 60 -42 44 -13 -6
-18 -21 -18 -48 0 -22 -4 -40 -10 -40 -5 0 -10 24 -10 53 l0 54 37 1 c20 1 42
-3 50 -9z m311 -30 l18 -42 16 42 c9 22 21 41 27 41 10 0 -42 -137 -58 -153
-5 -5 -8 11 -8 35 1 24 -6 60 -16 81 -10 22 -13 37 -7 37 6 0 19 -19 28 -41z
m236 25 c37 -36 2 -101 -49 -92 -22 5 -25 2 -25 -23 0 -16 -4 -29 -10 -29 -6
0 -10 33 -10 78 l0 79 39 1 c25 1 46 -4 55 -14z m186 -39 l0 -52 -39 -1 c-31
-1 -44 3 -55 20 -34 48 -8 89 55 86 l39 -1 0 -52z m117 44 c15 -13 18 -99 4
-99 -6 0 -11 19 -13 43 -3 37 -6 42 -28 42 -22 0 -25 -5 -28 -42 -4 -62 -22
-53 -22 10 l0 54 37 1 c20 1 42 -3 50 -9z m4619 -14 c13 -21 14 -28 2 -52 -12
-24 -20 -28 -51 -27 -35 1 -37 -1 -37 -28 0 -17 -4 -27 -10 -23 -5 3 -10 39
-10 78 l0 73 45 2 c38 1 47 -2 61 -23z m118 9 c30 -29 20 -44 -30 -44 -32 0
-44 -4 -42 -12 6 -18 46 -22 64 -8 17 15 19 -1 2 -18 -28 -28 -88 0 -88 40 0
53 58 79 94 42z m123 5 c15 -13 18 -99 4 -99 -6 0 -11 19 -13 43 -3 37 -6 42
-28 42 -22 0 -25 -5 -28 -42 -4 -62 -22 -53 -22 10 l0 54 37 1 c20 1 42 -3 50
-9z m193 -44 c0 -30 -4 -55 -10 -55 -5 0 -10 25 -10 55 0 30 5 55 10 55 6 0
10 -25 10 -55z m120 36 c13 -25 13 -78 0 -86 -6 -4 -10 8 -10 29 0 38 -23 68
-45 60 -10 -4 -15 -21 -15 -50 0 -24 -4 -44 -10 -44 -5 0 -10 25 -10 55 l0 55
40 0 c29 0 42 -5 50 -19z m140 -44 c0 -67 -17 -97 -56 -97 -23 0 -59 28 -49
38 3 3 11 0 17 -6 11 -11 58 -17 58 -8 0 2 3 11 6 20 5 13 1 15 -25 10 -40 -8
-61 9 -61 50 0 43 16 56 67 54 l43 -1 0 -60z m200 53 c0 -4 -9 -10 -20 -13
-16 -4 -20 -14 -20 -46 0 -23 -4 -41 -10 -41 -5 0 -10 24 -10 53 0 53 1 54 30
55 17 0 30 -3 30 -8z m102 -7 c32 -28 22 -43 -28 -43 -32 0 -44 -4 -42 -12 6
-18 46 -22 64 -8 17 15 19 -1 2 -18 -28 -28 -88 0 -88 40 0 54 52 77 92 41z
m138 -65 c0 -45 -4 -78 -10 -78 -5 0 -10 13 -10 28 0 26 -3 28 -29 24 -21 -3
-33 2 -45 19 -33 48 -7 90 55 87 l39 -1 0 -79z m52 40 c3 -38 6 -43 28 -43 22
0 25 5 28 43 4 61 22 52 22 -11 l0 -54 -40 -1 c-46 -2 -60 15 -60 72 0 51 18
45 22 -6z m198 23 c18 -34 11 -41 -36 -41 -32 0 -44 -4 -42 -12 6 -18 46 -22
64 -8 17 15 19 -1 2 -18 -28 -28 -88 0 -88 40 0 38 19 58 55 58 24 0 38 -6 45
-19z m117 8 c15 -13 18 -99 4 -99 -6 0 -11 19 -13 43 -3 37 -6 42 -28 42 -22
0 -25 -5 -28 -42 -4 -62 -22 -53 -22 10 l0 54 37 1 c20 1 42 -3 50 -9z m121
-1 c20 -20 13 -30 -10 -14 -28 20 -58 4 -58 -30 0 -30 25 -42 52 -25 25 15 35
7 18 -14 -30 -36 -90 -7 -90 44 0 34 17 51 50 51 14 0 31 -5 38 -12z m63 -30
l13 -41 19 41 c26 61 41 51 16 -10 -12 -29 -27 -65 -33 -80 -14 -38 -28 -35
-21 5 4 19 0 46 -9 69 -18 42 -20 58 -8 58 5 0 15 -19 23 -42z m-6271 -228 c0
-7 -220 -10 -640 -10 -420 0 -640 3 -640 10 0 7 220 10 640 10 420 0 640 -3
640 -10z m6340 0 c0 -7 -337 -10 -990 -10 -653 0 -990 3 -990 10 0 7 337 10
990 10 653 0 990 -3 990 -10z m151 -499 c55 -62 113 -186 224 -479 162 -432
199 -512 261 -576 40 -42 73 -46 121 -17 59 37 123 130 287 423 93 166 152
248 208 289 40 29 48 31 104 26 93 -7 169 -52 289 -172 88 -87 254 -290 308
-375 35 -55 0 -38 -41 20 -156 220 -337 414 -440 468 -81 43 -154 52 -199 23
-48 -30 -111 -116 -198 -269 -190 -335 -251 -424 -316 -457 -52 -27 -95 -20
-138 25 -67 69 -111 167 -271 596 -141 378 -214 504 -292 504 -73 0 -131 -55
-321 -307 -59 -78 -132 -164 -162 -191 -130 -119 -217 -96 -464 121 -211 185
-291 218 -400 165 -107 -50 -269 -260 -437 -563 -79 -143 -99 -173 -109 -163
-3 3 8 29 25 57 16 29 30 53 30 55 0 10 143 248 208 346 86 130 204 255 273
288 58 28 138 29 197 2 53 -24 96 -56 197 -145 176 -157 239 -199 312 -211 85
-13 152 41 310 250 183 242 241 300 315 315 52 11 76 2 119 -48z m-5445 -41
c249 -63 464 -249 553 -480 133 -342 39 -707 -239 -932 -241 -196 -569 -237
-850 -107 -211 99 -361 271 -436 499 -26 78 -28 98 -28 235 0 142 2 155 32
245 90 271 301 470 572 540 106 27 289 27 396 0z m722 -1377 c2 -24 -3 -39
-22 -58 -14 -14 -26 -28 -26 -30 0 -2 15 -6 33 -8 21 -2 14 -4 -22 -5 l-54 -2
42 45 c45 49 48 57 26 75 -13 10 -19 10 -33 -4 -25 -22 -35 -20 -22 5 9 15 19
19 43 17 28 -3 32 -7 35 -35z m121 5 c11 -20 13 -35 6 -65 -8 -31 -15 -39 -38
-41 -16 -2 -35 2 -43 9 -16 14 -19 81 -3 110 15 29 59 21 78 -13z m121 13 c5
-11 10 -34 10 -51 0 -48 -16 -70 -51 -70 -23 0 -32 6 -40 28 -13 32 -5 92 13
104 23 14 57 9 68 -11z m-1943 -238 c-3 -10 -5 -4 -5 12 0 17 2 24 5 18 2 -7
2 -21 0 -30z m80 5 c-3 -7 -5 -2 -5 12 0 14 2 19 5 13 2 -7 2 -19 0 -25z
m6603 -18 c0 -5 -7 -10 -15 -10 -12 0 -15 -13 -15 -56 0 -73 -24 -70 -28 4 -2
38 -7 52 -18 52 -8 0 -12 5 -9 10 3 6 24 10 46 10 21 0 39 -4 39 -10z m50 -15
c0 -20 5 -25 25 -25 20 0 25 5 25 25 0 14 5 25 10 25 6 0 10 -28 10 -65 0 -37
-4 -65 -10 -65 -5 0 -10 14 -10 30 0 25 -4 30 -24 30 -19 0 -25 -6 -28 -27 -2
-16 -7 -28 -13 -28 -11 0 -20 89 -11 111 9 23 26 16 26 -11z m128 -28 c3 -38
7 -47 22 -47 15 0 19 9 22 47 4 64 28 71 28 7 0 -72 -40 -105 -82 -67 -13 11
-18 30 -18 65 0 65 24 60 28 -5z m-2211 -39 c-2 -18 -4 -6 -4 27 0 33 2 48 4
33 2 -15 2 -42 0 -60z m3720 0 c-2 -18 -4 -6 -4 27 0 33 2 48 4 33 2 -15 2
-42 0 -60z m-924 25 c-7 -2 -19 -2 -25 0 -7 3 -2 5 12 5 14 0 19 -2 13 -5z"/>
<path d="M16953 8933 c-27 -5 -93 -77 -93 -101 0 -9 3 -28 7 -41 6 -23 8 -22
28 20 19 41 23 44 58 43 40 -1 81 -32 98 -74 8 -20 12 -22 19 -10 25 39 2 124
-42 154 -22 16 -33 17 -75 9z"/>
<path d="M17065 8600 c3 -5 8 -10 11 -10 2 0 4 5 4 10 0 6 -5 10 -11 10 -5 0
-7 -4 -4 -10z"/>
<path d="M16850 8520 c0 -5 4 -10 9 -10 5 0 17 -3 25 -6 12 -5 15 -2 10 10 -7
17 -44 22 -44 6z"/>
<path d="M14408 8755 c2 -14 6 -25 8 -25 2 0 4 11 4 25 0 14 -4 25 -9 25 -4 0
-6 -11 -3 -25z"/>
<path d="M15273 8766 c4 -10 7 -24 7 -32 0 -8 5 -14 11 -14 15 0 6 53 -10 58
-10 3 -12 0 -8 -12z"/>
<path d="M4455 8744 c-9 -9 -14 -23 -11 -31 3 -8 6 -16 6 -18 0 -3 9 -9 19
-15 15 -7 23 -6 35 6 20 20 20 38 0 58 -20 20 -29 20 -49 0z"/>
<path d="M4777 8754 c-15 -15 -6 -24 24 -24 20 0 29 4 27 13 -5 14 -40 21 -51
11z"/>
<path d="M4180 7835 c0 -37 3 -45 18 -45 10 0 23 5 30 12 17 17 15 65 -4 72
-36 14 -44 7 -44 -39z"/>
<path d="M4696 7833 c-4 -9 0 -23 9 -32 13 -14 17 -14 31 1 9 9 14 24 11 32
-8 21 -43 20 -51 -1z"/>
<path d="M5164 7836 c-9 -24 4 -48 23 -44 12 2 18 12 18 28 0 29 -32 41 -41
16z"/>
<path d="M4322 7823 c2 -20 8 -28 23 -28 31 0 28 49 -3 53 -20 3 -23 0 -20
-25z"/>
<path d="M4824 7836 c-9 -24 4 -48 23 -44 12 2 18 12 18 28 0 29 -32 41 -41
16z"/>
<path d="M4954 7836 c-9 -24 4 -48 23 -44 12 2 18 12 18 28 0 29 -32 41 -41
16z"/>
<path d="M4510 7275 c-26 -31 13 -82 44 -56 19 16 21 42 4 59 -16 16 -33 15
-48 -3z"/>
<path d="M4640 7275 c-16 -19 1 -65 24 -65 39 0 49 72 10 78 -11 2 -27 -4 -34
-13z"/>
<path d="M4770 7275 c-26 -31 13 -82 44 -56 19 16 21 42 4 59 -16 16 -33 15
-48 -3z"/>
<path d="M6840 7176 c-11 -14 -7 -16 30 -16 29 0 40 4 38 13 -7 18 -53 20 -68
3z"/>
<path d="M7224 7165 c-14 -21 -15 -31 -5 -51 9 -21 17 -25 44 -22 28 3 32 7
35 36 6 61 -43 85 -74 37z"/>
<path d="M7702 7178 c-16 -16 -15 -63 2 -78 20 -15 56 -9 70 12 16 27 -4 72
-34 76 -14 2 -31 -3 -38 -10z"/>
<path d="M4354 6706 c-10 -26 1 -51 22 -54 27 -4 47 21 39 48 -7 24 -53 28
-61 6z"/>
<path d="M4714 6706 c-11 -29 1 -51 28 -54 22 -3 29 2 34 22 3 14 3 30 -1 35
-9 16 -55 13 -61 -3z"/>
<path d="M5086 6702 c-11 -32 4 -53 33 -50 22 2 26 8 26 33 0 25 -4 31 -27 33
-19 2 -28 -2 -32 -16z"/>
<path d="M4170 6170 c0 -14 7 -20 23 -20 30 0 40 10 26 27 -18 20 -49 16 -49
-7z"/>
<path d="M4170 6105 c0 -23 4 -26 28 -23 19 2 27 9 27 23 0 14 -8 21 -27 23
-24 3 -28 0 -28 -23z"/>
<path d="M4426 6144 c-19 -19 -20 -25 -3 -48 20 -27 51 -17 55 18 5 42 -24 59
-52 30z"/>
<path d="M4562 6151 c-8 -5 -12 -21 -10 -37 4 -40 43 -46 59 -10 18 39 -14 70
-49 47z"/>
<path d="M4690 6145 c-11 -13 -8 -15 20 -15 21 0 30 4 28 13 -7 18 -33 20 -48
2z"/>
<path d="M7515 5454 c-19 -19 -16 -43 6 -57 37 -23 69 29 37 61 -16 16 -23 15
-43 -4z"/>
<path d="M7645 5456 c-13 -9 -16 -20 -11 -40 5 -22 11 -27 34 -24 21 2 28 9
30 30 4 34 -26 54 -53 34z"/>
<path d="M7828 5459 c-35 -20 -11 -75 29 -67 22 4 29 43 13 64 -14 16 -19 17
-42 3z"/>
<path d="M8200 5455 c-11 -13 -7 -15 26 -15 36 1 38 2 20 15 -25 19 -31 19
-46 0z"/>
<path d="M11350 5365 c-26 -31 13 -82 44 -56 19 16 21 42 4 59 -16 16 -33 15
-48 -3z"/>
<path d="M11680 5365 c-11 -13 -8 -15 20 -15 21 0 30 4 28 13 -7 18 -33 20
-48 2z"/>
<path d="M14920 5365 c-26 -31 13 -82 44 -56 19 16 21 42 4 59 -16 16 -33 15
-48 -3z"/>
<path d="M15053 5373 c-24 -9 -13 -23 18 -23 20 0 29 4 27 13 -5 13 -26 18
-45 10z"/>
<path d="M15400 5365 c-11 -13 -8 -15 20 -15 21 0 30 4 28 13 -7 18 -33 20
-48 2z"/>
<path d="M8114 5009 c-16 -17 -19 -37 -19 -111 0 -82 2 -91 24 -109 33 -27 66
-24 90 7 36 46 27 200 -13 226 -21 15 -63 8 -82 -13z"/>
<path d="M8463 5003 c-21 -32 -24 -165 -5 -200 23 -42 91 -42 114 0 7 12 12
56 12 98 1 95 -17 129 -69 129 -26 0 -39 -6 -52 -27z"/>
<path d="M13134 2986 c-11 -29 1 -51 28 -54 22 -3 29 2 34 22 3 14 3 30 -1 35
-9 16 -55 13 -61 -3z"/>
<path d="M7174 2986 c-11 -29 1 -51 28 -54 22 -3 29 2 34 22 3 14 3 30 -1 35
-9 16 -55 13 -61 -3z"/>
<path d="M7844 2986 c-10 -26 1 -51 22 -54 27 -4 47 21 39 48 -7 24 -53 28
-61 6z"/>
<path d="M8016 2982 c-11 -32 4 -53 33 -50 22 2 26 8 26 33 0 25 -4 31 -27 33
-19 2 -28 -2 -32 -16z"/>
<path d="M12761 2982 c-12 -23 4 -52 29 -52 23 0 39 26 33 51 -7 24 -49 25
-62 1z"/>
<path d="M12894 2995 c-18 -13 -16 -14 19 -15 41 0 46 5 18 19 -13 7 -24 6
-37 -4z"/>
<path d="M13455 2996 c-23 -17 -16 -60 11 -64 26 -4 48 21 39 47 -8 25 -29 33
-50 17z"/>
<path d="M13777 2998 c-10 -5 -15 -13 -12 -19 10 -15 55 -11 55 5 0 19 -22 26
-43 14z"/>
<path d="M13885 2980 c-8 -27 12 -52 39 -48 16 2 21 10 21 33 0 25 -4 31 -27
33 -19 2 -28 -2 -33 -18z"/>
<path d="M14154 2995 c-18 -13 -16 -14 19 -15 41 0 46 5 18 19 -13 7 -24 6
-37 -4z"/>
<path d="M9000 2214 c-88 -15 -130 -27 -130 -37 0 -6 7 -37 17 -70 14 -51 19
-58 37 -53 59 17 169 26 231 20 161 -15 284 -74 400 -189 114 -113 178 -243
192 -387 l6 -68 68 0 69 0 0 48 c0 63 -23 167 -53 242 -38 93 -85 167 -157
243 -153 164 -327 244 -550 252 -58 2 -116 2 -130 -1z"/>
<path d="M8764 2146 c-111 -51 -243 -163 -316 -270 -79 -115 -138 -283 -138
-393 l0 -53 70 0 70 0 0 43 c0 129 79 304 185 408 72 71 99 90 186 133 l65 32
-19 62 c-22 71 -27 72 -103 38z"/>
<path d="M8973 2050 c-188 -40 -358 -172 -441 -343 -51 -105 -66 -170 -66
-282 0 -111 15 -176 64 -281 76 -159 222 -279 402 -331 81 -23 103 -25 197
-20 114 6 180 24 280 77 218 117 357 388 322 629 -38 259 -191 445 -438 532
-66 24 -249 34 -320 19z"/>
<path d="M10077 844 c-4 -4 -7 -26 -7 -50 0 -29 5 -44 16 -48 28 -11 45 14 42
58 -2 32 -7 42 -23 44 -12 2 -24 0 -28 -4z"/>
<path d="M10197 844 c-13 -13 -7 -81 8 -94 25 -21 47 6 43 54 -2 32 -7 42 -23
44 -12 2 -24 0 -28 -4z"/>
</g>
</svg>
